<mxfile host="65bd71144e">
    <diagram id="pIaEtrtLPv3HG8r1JEND" name="Page-1">
        <mxGraphModel dx="520" dy="475" grid="1" gridSize="10" guides="1" tooltips="1" connect="1" arrows="1" fold="1" page="1" pageScale="1" pageWidth="850" pageHeight="1100" math="0" shadow="0">
            <root>
                <mxCell id="0"/>
                <mxCell id="1" parent="0"/>
                <mxCell id="2" value="" style="rounded=0;whiteSpace=wrap;html=1;fillColor=#F2E6FF;" parent="1" vertex="1">
                    <mxGeometry x="81" y="80" width="400" height="300" as="geometry"/>
                </mxCell>
                <mxCell id="3" value="Guess the number from 1-6 :" style="rounded=0;whiteSpace=wrap;html=1;fillColor=#4C0099;fontColor=#FFFFFF;strokeColor=#006EAF;" parent="1" vertex="1">
                    <mxGeometry x="80" y="81" width="400" height="40" as="geometry"/>
                </mxCell>
                <mxCell id="6" value="Guess?" style="labelPosition=center;verticalLabelPosition=middle;align=center;html=1;shape=mxgraph.basic.button;dx=10;fontColor=#FFFFFF;fillColor=#4C0099;strokeColor=#FFFFFF;" parent="1" vertex="1">
                    <mxGeometry x="110" y="290" width="100" height="40" as="geometry"/>
                </mxCell>
                <mxCell id="11" value="" style="rounded=0;whiteSpace=wrap;html=1;" parent="1" vertex="1">
                    <mxGeometry x="110" y="260" width="210" height="10" as="geometry"/>
                </mxCell>
                <mxCell id="12" value="Actor" style="shape=umlActor;verticalLabelPosition=bottom;verticalAlign=top;html=1;outlineConnect=0;fontColor=none;noLabel=1;fillColor=none;strokeColor=#000000;" parent="1" vertex="1">
                    <mxGeometry x="120" y="130" width="40" height="70" as="geometry"/>
                </mxCell>
                <mxCell id="19" value="Your value: ___" style="text;html=1;strokeColor=none;fillColor=none;align=center;verticalAlign=middle;whiteSpace=wrap;rounded=0;fontStyle=1;fontColor=#000000;fontSize=14;" parent="1" vertex="1">
                    <mxGeometry x="95" y="230" width="90" height="30" as="geometry"/>
                </mxCell>
                <mxCell id="22" value="*Answer goes here*" style="text;html=1;strokeColor=none;fillColor=none;align=center;verticalAlign=middle;whiteSpace=wrap;rounded=0;fontColor=#000000;" parent="1" vertex="1">
                    <mxGeometry x="80" y="340" width="150" height="30" as="geometry"/>
                </mxCell>
                <mxCell id="23" value="" style="rounded=0;whiteSpace=wrap;html=1;fillColor=#000000;" vertex="1" parent="1">
                    <mxGeometry x="210" y="255" width="10" height="20" as="geometry"/>
                </mxCell>
                <mxCell id="24" value="Shrek is thinking of a number from 1-6...but which could it be? Take a guess and see if you know shrek well!" style="text;html=1;strokeColor=none;fillColor=none;align=center;verticalAlign=middle;whiteSpace=wrap;rounded=0;fontColor=#000000;" vertex="1" parent="1">
                    <mxGeometry x="310" y="160" width="150" height="30" as="geometry"/>
                </mxCell>
            </root>
        </mxGraphModel>
    </diagram>
</mxfile>